<mxfile host="app.diagrams.net" agent="Mozilla/5.0 (Windows NT 10.0; Win64; x64) AppleWebKit/537.36 (KHTML, like Gecko) Chrome/131.0.0.0 Safari/537.36" version="24.9.3">
  <diagram name="Страница — 1" id="CHZO6XZOVahai5rqpJfA">
    <mxGraphModel dx="712" dy="771" grid="1" gridSize="10" guides="1" tooltips="1" connect="1" arrows="1" fold="1" page="1" pageScale="1" pageWidth="827" pageHeight="1169" math="0" shadow="0">
      <root>
        <mxCell id="0" />
        <mxCell id="1" parent="0" />
        <mxCell id="3rqNLl1EYmCBx5KHhJKR-4" value="" style="edgeStyle=orthogonalEdgeStyle;rounded=0;orthogonalLoop=1;jettySize=auto;html=1;" edge="1" parent="1" source="3rqNLl1EYmCBx5KHhJKR-1" target="3rqNLl1EYmCBx5KHhJKR-3">
          <mxGeometry relative="1" as="geometry" />
        </mxCell>
        <mxCell id="3rqNLl1EYmCBx5KHhJKR-1" value="Start" style="ellipse;whiteSpace=wrap;html=1;fillColor=#d5e8d4;strokeColor=#82b366;" vertex="1" parent="1">
          <mxGeometry x="160" width="120" height="80" as="geometry" />
        </mxCell>
        <mxCell id="3rqNLl1EYmCBx5KHhJKR-2" value="End" style="ellipse;whiteSpace=wrap;html=1;fillColor=#f8cecc;strokeColor=#b85450;" vertex="1" parent="1">
          <mxGeometry x="500" y="540" width="120" height="80" as="geometry" />
        </mxCell>
        <mxCell id="3rqNLl1EYmCBx5KHhJKR-7" value="" style="edgeStyle=orthogonalEdgeStyle;rounded=0;orthogonalLoop=1;jettySize=auto;html=1;" edge="1" parent="1" source="3rqNLl1EYmCBx5KHhJKR-3" target="3rqNLl1EYmCBx5KHhJKR-6">
          <mxGeometry relative="1" as="geometry" />
        </mxCell>
        <mxCell id="3rqNLl1EYmCBx5KHhJKR-3" value="int n&lt;br&gt;vector&amp;lt;int&amp;gt; arr" style="rounded=0;whiteSpace=wrap;html=1;" vertex="1" parent="1">
          <mxGeometry x="172.5" y="110" width="95" height="40" as="geometry" />
        </mxCell>
        <mxCell id="3rqNLl1EYmCBx5KHhJKR-9" value="" style="edgeStyle=orthogonalEdgeStyle;rounded=0;orthogonalLoop=1;jettySize=auto;html=1;" edge="1" parent="1" source="3rqNLl1EYmCBx5KHhJKR-6" target="3rqNLl1EYmCBx5KHhJKR-8">
          <mxGeometry relative="1" as="geometry" />
        </mxCell>
        <mxCell id="3rqNLl1EYmCBx5KHhJKR-12" style="edgeStyle=orthogonalEdgeStyle;rounded=0;orthogonalLoop=1;jettySize=auto;html=1;exitX=1;exitY=0.5;exitDx=0;exitDy=0;entryX=0.5;entryY=0;entryDx=0;entryDy=0;" edge="1" parent="1" source="3rqNLl1EYmCBx5KHhJKR-6" target="3rqNLl1EYmCBx5KHhJKR-11">
          <mxGeometry relative="1" as="geometry" />
        </mxCell>
        <mxCell id="3rqNLl1EYmCBx5KHhJKR-6" value="while (cin &amp;gt;&amp;gt; n)" style="rhombus;whiteSpace=wrap;html=1;" vertex="1" parent="1">
          <mxGeometry x="160" y="180" width="120" height="50" as="geometry" />
        </mxCell>
        <mxCell id="3rqNLl1EYmCBx5KHhJKR-10" style="edgeStyle=orthogonalEdgeStyle;rounded=0;orthogonalLoop=1;jettySize=auto;html=1;exitX=0.5;exitY=1;exitDx=0;exitDy=0;" edge="1" parent="1" source="3rqNLl1EYmCBx5KHhJKR-8">
          <mxGeometry relative="1" as="geometry">
            <mxPoint x="220" y="160" as="targetPoint" />
            <Array as="points">
              <mxPoint x="220" y="310" />
              <mxPoint x="131" y="310" />
            </Array>
          </mxGeometry>
        </mxCell>
        <mxCell id="3rqNLl1EYmCBx5KHhJKR-8" value="arr.push_back(n)" style="rounded=0;whiteSpace=wrap;html=1;" vertex="1" parent="1">
          <mxGeometry x="165" y="250" width="110" height="40" as="geometry" />
        </mxCell>
        <mxCell id="3rqNLl1EYmCBx5KHhJKR-14" value="" style="edgeStyle=orthogonalEdgeStyle;rounded=0;orthogonalLoop=1;jettySize=auto;html=1;" edge="1" parent="1" source="3rqNLl1EYmCBx5KHhJKR-11" target="3rqNLl1EYmCBx5KHhJKR-13">
          <mxGeometry relative="1" as="geometry" />
        </mxCell>
        <mxCell id="3rqNLl1EYmCBx5KHhJKR-11" value="sort(arr.begin(), arr.end())" style="rounded=0;whiteSpace=wrap;html=1;" vertex="1" parent="1">
          <mxGeometry x="330" y="250" width="150" height="30" as="geometry" />
        </mxCell>
        <mxCell id="3rqNLl1EYmCBx5KHhJKR-16" value="" style="edgeStyle=orthogonalEdgeStyle;rounded=0;orthogonalLoop=1;jettySize=auto;html=1;" edge="1" parent="1" source="3rqNLl1EYmCBx5KHhJKR-13" target="3rqNLl1EYmCBx5KHhJKR-15">
          <mxGeometry relative="1" as="geometry" />
        </mxCell>
        <mxCell id="3rqNLl1EYmCBx5KHhJKR-30" style="edgeStyle=orthogonalEdgeStyle;rounded=0;orthogonalLoop=1;jettySize=auto;html=1;exitX=1;exitY=0.5;exitDx=0;exitDy=0;entryX=0.5;entryY=0;entryDx=0;entryDy=0;" edge="1" parent="1" source="3rqNLl1EYmCBx5KHhJKR-13" target="3rqNLl1EYmCBx5KHhJKR-2">
          <mxGeometry relative="1" as="geometry" />
        </mxCell>
        <mxCell id="3rqNLl1EYmCBx5KHhJKR-13" value="for (size_t i = 0; i &amp;lt; arr.size(); i++)" style="rhombus;whiteSpace=wrap;html=1;" vertex="1" parent="1">
          <mxGeometry x="292.5" y="330" width="225" height="50" as="geometry" />
        </mxCell>
        <mxCell id="3rqNLl1EYmCBx5KHhJKR-19" style="edgeStyle=orthogonalEdgeStyle;rounded=0;orthogonalLoop=1;jettySize=auto;html=1;exitX=0;exitY=0.5;exitDx=0;exitDy=0;entryX=0.5;entryY=0;entryDx=0;entryDy=0;" edge="1" parent="1" source="3rqNLl1EYmCBx5KHhJKR-15" target="3rqNLl1EYmCBx5KHhJKR-18">
          <mxGeometry relative="1" as="geometry" />
        </mxCell>
        <mxCell id="3rqNLl1EYmCBx5KHhJKR-27" value="" style="edgeStyle=orthogonalEdgeStyle;rounded=0;orthogonalLoop=1;jettySize=auto;html=1;" edge="1" parent="1" source="3rqNLl1EYmCBx5KHhJKR-15" target="3rqNLl1EYmCBx5KHhJKR-20">
          <mxGeometry relative="1" as="geometry" />
        </mxCell>
        <mxCell id="3rqNLl1EYmCBx5KHhJKR-15" value="if(i &amp;gt; 0)" style="rhombus;whiteSpace=wrap;html=1;" vertex="1" parent="1">
          <mxGeometry x="365" y="400" width="80" height="80" as="geometry" />
        </mxCell>
        <mxCell id="3rqNLl1EYmCBx5KHhJKR-25" style="edgeStyle=orthogonalEdgeStyle;rounded=0;orthogonalLoop=1;jettySize=auto;html=1;exitX=0.5;exitY=1;exitDx=0;exitDy=0;" edge="1" parent="1" source="3rqNLl1EYmCBx5KHhJKR-18">
          <mxGeometry relative="1" as="geometry">
            <mxPoint x="410" y="310" as="targetPoint" />
            <Array as="points">
              <mxPoint x="315" y="510" />
              <mxPoint x="260" y="510" />
              <mxPoint x="260" y="310" />
            </Array>
          </mxGeometry>
        </mxCell>
        <mxCell id="3rqNLl1EYmCBx5KHhJKR-18" value="cout &amp;lt;&amp;lt; &quot; &quot;" style="shape=parallelogram;perimeter=parallelogramPerimeter;whiteSpace=wrap;html=1;fixedSize=1;" vertex="1" parent="1">
          <mxGeometry x="267.5" y="460" width="95" height="30" as="geometry" />
        </mxCell>
        <mxCell id="3rqNLl1EYmCBx5KHhJKR-28" style="edgeStyle=orthogonalEdgeStyle;rounded=0;orthogonalLoop=1;jettySize=auto;html=1;exitX=0.5;exitY=1;exitDx=0;exitDy=0;" edge="1" parent="1" source="3rqNLl1EYmCBx5KHhJKR-20">
          <mxGeometry relative="1" as="geometry">
            <mxPoint x="410" y="310" as="targetPoint" />
            <Array as="points">
              <mxPoint x="405" y="560" />
              <mxPoint x="260" y="560" />
              <mxPoint x="260" y="310" />
            </Array>
          </mxGeometry>
        </mxCell>
        <mxCell id="3rqNLl1EYmCBx5KHhJKR-20" value="cout &amp;lt;&amp;lt; arr[i]" style="shape=parallelogram;perimeter=parallelogramPerimeter;whiteSpace=wrap;html=1;fixedSize=1;" vertex="1" parent="1">
          <mxGeometry x="352.5" y="510" width="105" height="30" as="geometry" />
        </mxCell>
      </root>
    </mxGraphModel>
  </diagram>
</mxfile>
